<svg xmlns="http://www.w3.org/2000/svg" xmlns:xlink="http://www.w3.org/1999/xlink" xmlns:s="https://github.com/nturley/netlistsvg" width="403" height="184">
  <style>svg {
    stroke:#000;
    fill:none;
  }
  text {
    fill:#000;
    stroke:none;
    font-size:10px;
    font-weight: bold;
    font-family: "Courier New", monospace;
  }
  .nodelabel {
    text-anchor: middle;
  }
  .inputPortLabel {
    text-anchor: end;
  }
  .splitjoinBody {
    fill:#000;
  }</style>
  <g s:type="not" transform="translate(95,22)" s:width="30" s:height="20" id="cell_\1">
    <s:alias val="$_NOT_"/>
    <s:alias val="$not"/>
    <s:alias val="$logic_not"/>
    <path d="M0,0 L0,20 L20,10 Z" class="cell_\1"/>
    <circle cx="23" cy="10" r="3" class="cell_\1"/>
    <g s:x="0" s:y="10" s:pid="A"/>
    <g s:x="25" s:y="10" s:pid="Y"/>
  </g>
  <g s:type="not" transform="translate(95,87)" s:width="30" s:height="20" id="cell_\2">
    <s:alias val="$_NOT_"/>
    <s:alias val="$not"/>
    <s:alias val="$logic_not"/>
    <path d="M0,0 L0,20 L20,10 Z" class="cell_\2"/>
    <circle cx="23" cy="10" r="3" class="cell_\2"/>
    <g s:x="0" s:y="10" s:pid="A"/>
    <g s:x="25" s:y="10" s:pid="Y"/>
  </g>
  <g s:type="and" transform="translate(166,27)" s:width="30" s:height="25" id="cell_\3">
    <s:alias val="$and"/>
    <s:alias val="$logic_and"/>
    <s:alias val="$_AND_"/>
    <path d="M0,0 L0,25 L15,25 A15 12.5 0 0 0 15,0 Z" class="cell_\3"/>
    <g s:x="0" s:y="5" s:pid="A"/>
    <g s:x="0" s:y="20" s:pid="B"/>
    <g s:x="30" s:y="12.5" s:pid="Y"/>
  </g>
  <g s:type="not" transform="translate(166,152)" s:width="30" s:height="20" id="cell_\4">
    <s:alias val="$_NOT_"/>
    <s:alias val="$not"/>
    <s:alias val="$logic_not"/>
    <path d="M0,0 L0,20 L20,10 Z" class="cell_\4"/>
    <circle cx="23" cy="10" r="3" class="cell_\4"/>
    <g s:x="0" s:y="10" s:pid="A"/>
    <g s:x="25" s:y="10" s:pid="Y"/>
  </g>
  <g s:type="or" transform="translate(231,34.5)" s:width="30" s:height="25" id="cell_\5">
    <s:alias val="$or"/>
    <s:alias val="$logic_or"/>
    <s:alias val="$_OR_"/>
    <path d="M0,25 L0,25 L15,25 A15 12.5 0 0 0 15,0 L0,0" class="cell_\5"/>
    <path d="M0,0 A30 25 0 0 1 0,25" class="cell_\5"/>
    <g s:x="3" s:y="5" s:pid="A"/>
    <g s:x="3" s:y="20" s:pid="B"/>
    <g s:x="30" s:y="12.5" s:pid="Y"/>
  </g>
  <g s:type="not" transform="translate(296,37)" s:width="30" s:height="20" id="cell_\6">
    <s:alias val="$_NOT_"/>
    <s:alias val="$not"/>
    <s:alias val="$logic_not"/>
    <path d="M0,0 L0,20 L20,10 Z" class="cell_\6"/>
    <circle cx="23" cy="10" r="3" class="cell_\6"/>
    <g s:x="0" s:y="10" s:pid="A"/>
    <g s:x="25" s:y="10" s:pid="Y"/>
  </g>
  <g s:type="inputExt" transform="translate(12,22)" s:width="30" s:height="20" id="cell_Button1">
    <text x="15" y="-4" class="nodelabel cell_Button1" s:attribute="ref">Button1</text>
    <s:alias val="$_inputExt_"/>
    <path d="M0,0 L0,20 L15,20 L30,10 L15,0 Z" class="cell_Button1"/>
    <g s:x="28" s:y="10" s:pid="Y"/>
  </g>
  <g s:type="inputExt" transform="translate(12,87)" s:width="30" s:height="20" id="cell_Button2">
    <text x="15" y="-4" class="nodelabel cell_Button2" s:attribute="ref">Button2</text>
    <s:alias val="$_inputExt_"/>
    <path d="M0,0 L0,20 L15,20 L30,10 L15,0 Z" class="cell_Button2"/>
    <g s:x="28" s:y="10" s:pid="Y"/>
  </g>
  <g s:type="inputExt" transform="translate(89,152)" s:width="30" s:height="20" id="cell_Button3">
    <text x="15" y="-4" class="nodelabel cell_Button3" s:attribute="ref">Button3</text>
    <s:alias val="$_inputExt_"/>
    <path d="M0,0 L0,20 L15,20 L30,10 L15,0 Z" class="cell_Button3"/>
    <g s:x="28" s:y="10" s:pid="Y"/>
  </g>
  <g s:type="outputExt" transform="translate(361,37)" s:width="30" s:height="20" id="cell_Led">
    <text x="15" y="-4" class="nodelabel cell_Led" s:attribute="ref">Led</text>
    <s:alias val="$_outputExt_"/>
    <path d="M30,0 L30,20 L15,20 L0,10 L15,0 Z" class="cell_Led"/>
    <g s:x="0" s:y="10" s:pid="A"/>
  </g>
  <line x1="40" x2="95" y1="32" y2="32" class="net_2"/>
  <line x1="40" x2="95" y1="97" y2="97" class="net_3"/>
  <line x1="120" x2="166" y1="32" y2="32" class="net_6"/>
  <line x1="120" x2="141" y1="97" y2="97" class="net_7"/>
  <line x1="141" x2="141" y1="97" y2="47" class="net_7"/>
  <line x1="141" x2="166" y1="47" y2="47" class="net_7"/>
  <line x1="117" x2="166" y1="162" y2="162" class="net_4"/>
  <line x1="196" x2="234" y1="39.5" y2="39.5" class="net_8"/>
  <line x1="191" x2="206" y1="162" y2="162" class="net_9"/>
  <line x1="206" x2="206" y1="162" y2="54.5" class="net_9"/>
  <line x1="206" x2="234" y1="54.5" y2="54.5" class="net_9"/>
  <line x1="261" x2="296" y1="47" y2="47" class="net_10"/>
  <line x1="321" x2="361" y1="47" y2="47" class="net_5"/>
</svg>
