<svg xmlns="http://www.w3.org/2000/svg" xmlns:xlink="http://www.w3.org/1999/xlink" xmlns:s="https://github.com/nturley/netlistsvg" width="456" height="120.5">
  <style>svg {
    stroke:#000;
    fill:none;
  }
  text {
    fill:#000;
    stroke:none;
    font-size:10px;
    font-weight: bold;
    font-family: "Courier New", monospace;
  }
  .nodelabel {
    text-anchor: middle;
  }
  .inputPortLabel {
    text-anchor: end;
  }
  .splitjoinBody {
    fill:#000;
  }</style>
  <g s:type="not" transform="translate(122,77.5)" s:width="30" s:height="20" id="cell_\1">
    <s:alias val="$_NOT_"/>
    <s:alias val="$not"/>
    <s:alias val="$logic_not"/>
    <path d="M0,0 L0,20 L20,10 Z" class="cell_\1"/>
    <circle cx="23" cy="10" r="3" class="cell_\1"/>
    <g s:x="0" s:y="10" s:pid="A"/>
    <g s:x="25" s:y="10" s:pid="Y"/>
  </g>
  <g s:type="generic" transform="translate(293,22)" s:width="30" s:height="40" id="cell_timerinstance">
    <text x="15" y="-4" class="nodelabel cell_timerinstance" s:attribute="ref">one_time_timer_100000000</text>
    <rect width="30" height="60" s:generic="body" class="cell_timerinstance"/>
    <g transform="translate(0,10)" s:x="0" s:y="10" s:pid="in0" id="port_timerinstance~inclock">
      <text x="-3" y="-4" class="inputPortLabel cell_timerinstance">inclock</text>
    </g>
    <g transform="translate(0,30)" s:x="0" s:y="10" s:pid="in0" id="port_timerinstance~inreset">
      <text x="-3" y="-4" class="inputPortLabel cell_timerinstance">inreset</text>
    </g>
    <g transform="translate(0,50)" s:x="0" s:y="10" s:pid="in0" id="port_timerinstance~intimerenabled">
      <text x="-3" y="-4" class="inputPortLabel cell_timerinstance">intimerenabled</text>
    </g>
    <g transform="translate(30,10)" s:x="30" s:y="10" s:pid="out0" id="port_timerinstance~outtimer">
      <text x="5" y="-4" style="fill:#000; stroke:none" class="cell_timerinstance">outtimer</text>
    </g>
  </g>
  <g s:type="inputExt" transform="translate(101,22.5)" s:width="30" s:height="20" id="cell_inClock50Mhz">
    <text x="15" y="-4" class="nodelabel cell_inClock50Mhz" s:attribute="ref">inClock50Mhz</text>
    <s:alias val="$_inputExt_"/>
    <path d="M0,0 L0,20 L15,20 L30,10 L15,0 Z" class="cell_inClock50Mhz"/>
    <g s:x="28" s:y="10" s:pid="Y"/>
  </g>
  <g s:type="inputExt" transform="translate(12,77.5)" s:width="30" s:height="20" id="cell_inNoReset">
    <text x="15" y="-4" class="nodelabel cell_inNoReset" s:attribute="ref">inNoReset</text>
    <s:alias val="$_inputExt_"/>
    <path d="M0,0 L0,20 L15,20 L30,10 L15,0 Z" class="cell_inNoReset"/>
    <g s:x="28" s:y="10" s:pid="Y"/>
  </g>
  <g s:type="outputExt" transform="translate(408,22.5)" s:width="30" s:height="20" id="cell_outLed">
    <text x="15" y="-4" class="nodelabel cell_outLed" s:attribute="ref">outLed</text>
    <s:alias val="$_outputExt_"/>
    <path d="M30,0 L30,20 L15,20 L0,10 L15,0 Z" class="cell_outLed"/>
    <g s:x="0" s:y="10" s:pid="A"/>
  </g>
  <line x1="40" x2="122" y1="87.5" y2="87.5" class="net_3"/>
  <line x1="40" x2="76" y1="87.5" y2="87.5" class="net_3"/>
  <line x1="76" x2="76" y1="87.5" y2="107.5" class="net_3"/>
  <line x1="76" x2="193" y1="107.5" y2="107.5" class="net_3"/>
  <line x1="193" x2="193" y1="107.5" y2="72.5" class="net_3"/>
  <circle cx="76" cy="87.5" r="2" style="fill:#000" class="net_3"/>
  <line x1="193" x2="293" y1="72.5" y2="72.5" class="net_3"/>
  <line x1="129" x2="293" y1="32.5" y2="32.5" class="net_2"/>
  <line x1="147" x2="183" y1="87.5" y2="87.5" class="net_5"/>
  <line x1="183" x2="183" y1="87.5" y2="52.5" class="net_5"/>
  <line x1="183" x2="293" y1="52.5" y2="52.5" class="net_5"/>
  <line x1="324" x2="408" y1="32.5" y2="32.5" class="net_4"/>
</svg>
